<svg width="22" height="16" viewBox="0 0 22 16" fill="none" xmlns="http://www.w3.org/2000/svg">
<path d="M20.612 6.962C21.086 7.582 21.086 8.419 20.612 9.038C19.119 10.987 15.537 15 11.355 15C7.17299 15 3.59099 10.987 2.09799 9.038C1.86737 8.74113 1.74219 8.37592 1.74219 8C1.74219 7.62408 1.86737 7.25887 2.09799 6.962C3.59099 5.013 7.17299 1 11.355 1C15.537 1 19.119 5.013 20.612 6.962V6.962Z" stroke="#666666" stroke-width="2" stroke-linecap="round" stroke-linejoin="round"/>
<path d="M11.355 11C13.0118 11 14.355 9.65685 14.355 8C14.355 6.34315 13.0118 5 11.355 5C9.69813 5 8.35498 6.34315 8.35498 8C8.35498 9.65685 9.69813 11 11.355 11Z" stroke="#666666" stroke-width="2" stroke-linecap="round" stroke-linejoin="round"/>
</svg>
